<?xml version="1.0" encoding="UTF-8"?>
<svg xmlns="http://www.w3.org/2000/svg" xmlns:xlink="http://www.w3.org/1999/xlink" width="2000" height="2000" viewBox="0 0 2000 2000">
<path fill-rule="nonzero" fill="rgb(0%, 0%, 0%)" fill-opacity="1" d="M 955.03125 991.804688 C 944.136719 991.804688 935.816406 989.445312 930.070312 984.726562 C 924.320312 980.007812 921.445312 972.566406 921.445312 962.398438 L 921.445312 874.359375 C 921.445312 872.179688 922.714844 870.429688 925.257812 869.097656 C 927.800781 867.765625 930.402344 867.101562 933.0625 867.101562 C 935.96875 867.101562 938.660156 867.765625 941.144531 869.097656 C 943.621094 870.429688 944.863281 872.179688 944.863281 874.359375 L 944.863281 905.582031 L 966.285156 905.582031 C 968.214844 905.582031 969.703125 906.460938 970.730469 908.214844 C 971.757812 909.96875 972.273438 911.9375 972.273438 914.113281 C 972.273438 916.292969 971.757812 918.257812 970.730469 920.015625 C 969.703125 921.769531 968.214844 922.644531 966.285156 922.644531 L 944.863281 922.644531 L 944.863281 962.398438 C 944.863281 965.910156 945.617188 968.386719 947.132812 969.839844 C 948.644531 971.292969 951.273438 972.015625 955.03125 972.015625 L 962.105469 972.015625 C 965.496094 972.015625 968.007812 973.050781 969.644531 975.101562 C 971.273438 977.164062 972.089844 979.398438 972.089844 981.820312 C 972.089844 984.363281 971.273438 986.664062 969.644531 988.71875 C 968.007812 990.78125 965.496094 991.804688 962.105469 991.804688 Z M 955.03125 991.804688 "/>
<path fill-rule="nonzero" fill="rgb(0%, 0%, 0%)" fill-opacity="1" d="M 996.050781 991.804688 C 992.660156 991.804688 989.878906 991.019531 987.703125 989.445312 C 985.523438 987.875 984.433594 986.179688 984.433594 984.363281 L 984.433594 862.5625 C 984.433594 860.382812 985.523438 858.632812 987.703125 857.296875 C 989.878906 855.96875 992.660156 855.300781 996.050781 855.300781 C 999.316406 855.300781 1002.101562 855.96875 1004.398438 857.296875 C 1006.699219 858.632812 1007.847656 860.382812 1007.847656 862.5625 L 1007.847656 918.289062 C 1009.664062 914.78125 1012.507812 911.601562 1016.382812 908.761719 C 1020.253906 905.917969 1025.03125 904.496094 1030.722656 904.496094 C 1036.410156 904.496094 1041.613281 906.160156 1046.332031 909.484375 C 1051.050781 912.816406 1054.835938 917.261719 1057.675781 922.828125 C 1060.519531 928.394531 1061.941406 934.566406 1061.941406 941.34375 L 1061.941406 984.363281 C 1061.941406 986.785156 1060.730469 988.628906 1058.3125 989.898438 C 1055.890625 991.171875 1053.167969 991.804688 1050.144531 991.804688 C 1047.480469 991.804688 1044.882812 991.171875 1042.339844 989.898438 C 1039.800781 988.628906 1038.527344 986.785156 1038.527344 984.363281 L 1038.527344 941.34375 C 1038.527344 938.558594 1037.800781 935.957031 1036.347656 933.539062 C 1034.898438 931.117188 1032.992188 929.089844 1030.632812 927.457031 C 1028.269531 925.820312 1025.636719 925.003906 1022.734375 925.003906 C 1020.3125 925.003906 1017.953125 925.671875 1015.65625 927.003906 C 1013.355469 928.335938 1011.476562 930.210938 1010.027344 932.628906 C 1008.578125 935.050781 1007.847656 937.957031 1007.847656 941.34375 L 1007.847656 984.363281 C 1007.847656 986.179688 1006.699219 987.875 1004.398438 989.445312 C 1002.101562 991.019531 999.316406 991.804688 996.050781 991.804688 "/>
<path fill-rule="nonzero" fill="rgb(0%, 0%, 0%)" fill-opacity="1" d="M 1099.515625 940.980469 L 1126.019531 940.980469 C 1128.074219 940.980469 1129.496094 940.648438 1130.285156 939.980469 C 1131.070312 939.316406 1131.464844 938.015625 1131.464844 936.078125 C 1131.464844 933.296875 1130.738281 930.816406 1129.289062 928.636719 C 1127.832031 926.460938 1125.898438 924.765625 1123.476562 923.554688 C 1121.054688 922.34375 1118.398438 921.738281 1115.492188 921.738281 C 1112.707031 921.738281 1110.105469 922.316406 1107.6875 923.464844 C 1105.265625 924.613281 1103.296875 926.25 1101.785156 928.363281 C 1100.273438 930.484375 1099.515625 932.996094 1099.515625 935.898438 Z M 1120.027344 993.441406 C 1111.4375 993.441406 1103.839844 991.894531 1097.246094 988.808594 C 1090.652344 985.722656 1085.476562 981.367188 1081.726562 975.742188 C 1077.976562 970.113281 1076.101562 963.609375 1076.101562 956.226562 L 1076.101562 940.800781 C 1076.101562 934.265625 1077.882812 928.246094 1081.457031 922.738281 C 1085.023438 917.230469 1089.804688 912.816406 1095.796875 909.484375 C 1101.785156 906.160156 1108.472656 904.496094 1115.855469 904.496094 C 1122.632812 904.496094 1128.832031 905.945312 1134.460938 908.851562 C 1140.085938 911.753906 1144.652344 915.75 1148.164062 920.832031 C 1151.675781 925.914062 1153.429688 931.84375 1153.429688 938.621094 C 1153.429688 943.824219 1152.582031 947.542969 1150.886719 949.78125 C 1149.191406 952.023438 1147.042969 953.410156 1144.445312 953.957031 C 1141.839844 954.5 1139.148438 954.777344 1136.367188 954.777344 L 1099.515625 954.777344 L 1099.515625 957.496094 C 1099.515625 962.703125 1101.484375 966.90625 1105.417969 970.113281 C 1109.347656 973.320312 1114.460938 974.921875 1120.753906 974.921875 C 1124.746094 974.921875 1128.074219 974.320312 1130.738281 973.109375 C 1133.398438 971.898438 1135.699219 970.746094 1137.636719 969.660156 C 1139.574219 968.570312 1141.386719 968.023438 1143.082031 968.023438 C 1144.898438 968.023438 1146.46875 968.628906 1147.804688 969.839844 C 1149.132812 971.050781 1150.160156 972.472656 1150.886719 974.105469 C 1151.613281 975.742188 1151.976562 977.164062 1151.976562 978.371094 C 1151.976562 980.433594 1150.675781 982.636719 1148.074219 984.996094 C 1145.46875 987.359375 1141.78125 989.351562 1137.003906 990.988281 C 1132.21875 992.621094 1126.566406 993.441406 1120.027344 993.441406 "/>
<path fill-rule="nonzero" fill="rgb(0%, 0%, 0%)" fill-opacity="1" d="M 935.0625 1159.984375 C 931.671875 1159.984375 928.890625 1159.199219 926.710938 1157.628906 C 924.53125 1156.054688 923.445312 1154.359375 923.445312 1152.542969 L 923.445312 1030.742188 C 923.445312 1028.5625 924.53125 1026.8125 926.710938 1025.476562 C 928.890625 1024.148438 931.671875 1023.480469 935.0625 1023.480469 C 938.328125 1023.480469 941.113281 1024.148438 943.410156 1025.476562 C 945.707031 1026.8125 946.859375 1028.5625 946.859375 1030.742188 L 946.859375 1152.542969 C 946.859375 1154.359375 945.707031 1156.054688 943.410156 1157.628906 C 941.113281 1159.199219 938.328125 1159.984375 935.0625 1159.984375 "/>
<path fill-rule="nonzero" fill="rgb(0%, 0%, 0%)" fill-opacity="1" d="M 978.261719 1159.984375 C 974.871094 1159.984375 972.089844 1159.199219 969.914062 1157.628906 C 967.734375 1156.054688 966.644531 1154.359375 966.644531 1152.542969 L 966.644531 1081.023438 C 966.644531 1078.84375 967.734375 1077.09375 969.914062 1075.757812 C 972.089844 1074.429688 974.871094 1073.761719 978.261719 1073.761719 C 981.53125 1073.761719 984.3125 1074.429688 986.609375 1075.757812 C 988.910156 1077.09375 990.058594 1078.84375 990.058594 1081.023438 L 990.058594 1152.542969 C 990.058594 1154.359375 988.910156 1156.054688 986.609375 1157.628906 C 984.3125 1159.199219 981.53125 1159.984375 978.261719 1159.984375 M 978.261719 1054.519531 C 974.75 1054.519531 971.726562 1053.339844 969.1875 1050.984375 C 966.644531 1048.621094 965.375 1045.988281 965.375 1043.085938 C 965.375 1039.9375 966.644531 1037.25 969.1875 1035.007812 C 971.726562 1032.765625 974.75 1031.648438 978.261719 1031.648438 C 981.769531 1031.648438 984.765625 1032.765625 987.25 1035.007812 C 989.726562 1037.25 990.96875 1039.9375 990.96875 1043.085938 C 990.96875 1045.988281 989.726562 1048.621094 987.25 1050.984375 C 984.765625 1053.339844 981.769531 1054.519531 978.261719 1054.519531 "/>
<path fill-rule="nonzero" fill="rgb(0%, 0%, 0%)" fill-opacity="1" d="M 1019.648438 1159.984375 C 1016.261719 1159.984375 1013.476562 1159.199219 1011.296875 1157.628906 C 1009.121094 1156.054688 1008.035156 1154.359375 1008.035156 1152.542969 L 1008.035156 1081.023438 C 1008.035156 1078.84375 1009.121094 1077.09375 1011.296875 1075.757812 C 1013.476562 1074.429688 1016.261719 1073.761719 1019.648438 1073.761719 C 1022.550781 1073.761719 1025.003906 1074.429688 1027 1075.757812 C 1028.996094 1077.09375 1029.996094 1078.84375 1029.996094 1081.023438 L 1029.996094 1086.46875 C 1032.050781 1082.960938 1035.078125 1079.785156 1039.070312 1076.9375 C 1043.0625 1074.097656 1048.085938 1072.675781 1054.136719 1072.675781 C 1059.339844 1072.675781 1063.941406 1074.367188 1067.933594 1077.753906 C 1071.925781 1081.144531 1074.890625 1085.5 1076.828125 1090.824219 C 1079.976562 1084.652344 1084 1080.089844 1088.898438 1077.121094 C 1093.800781 1074.15625 1098.851562 1072.675781 1104.054688 1072.675781 C 1109.621094 1072.675781 1114.859375 1074.097656 1119.757812 1076.9375 C 1124.660156 1079.785156 1128.652344 1083.960938 1131.738281 1089.464844 C 1134.824219 1094.972656 1136.371094 1101.65625 1136.371094 1109.523438 L 1136.371094 1152.542969 C 1136.371094 1154.359375 1135.214844 1156.054688 1132.917969 1157.628906 C 1130.621094 1159.199219 1127.835938 1159.984375 1124.566406 1159.984375 C 1121.417969 1159.984375 1118.699219 1159.199219 1116.402344 1157.628906 C 1114.097656 1156.054688 1112.953125 1154.359375 1112.953125 1152.542969 L 1112.953125 1109.523438 C 1112.953125 1105.890625 1112.253906 1102.867188 1110.863281 1100.449219 C 1109.472656 1098.027344 1107.625 1096.179688 1105.328125 1094.910156 C 1103.027344 1093.640625 1100.667969 1093.003906 1098.25 1093.003906 C 1095.824219 1093.003906 1093.554688 1093.640625 1091.441406 1094.910156 C 1089.320312 1096.179688 1087.539062 1098.027344 1086.085938 1100.449219 C 1084.632812 1102.867188 1083.910156 1105.832031 1083.910156 1109.339844 L 1083.910156 1152.722656 C 1083.910156 1155.265625 1082.667969 1157.113281 1080.1875 1158.261719 C 1077.703125 1159.414062 1075.011719 1159.984375 1072.109375 1159.984375 C 1069.445312 1159.984375 1066.84375 1159.414062 1064.300781 1158.261719 C 1061.761719 1157.113281 1060.492188 1155.265625 1060.492188 1152.722656 L 1060.492188 1109.523438 C 1060.492188 1106.136719 1059.792969 1103.230469 1058.40625 1100.808594 C 1057.011719 1098.390625 1055.199219 1096.511719 1052.957031 1095.183594 C 1050.714844 1093.851562 1048.332031 1093.183594 1045.789062 1093.183594 C 1043.367188 1093.183594 1041.070312 1093.792969 1038.890625 1095 C 1036.710938 1096.210938 1034.925781 1098.027344 1033.539062 1100.449219 C 1032.140625 1102.867188 1031.449219 1105.890625 1031.449219 1109.523438 L 1031.449219 1152.542969 C 1031.449219 1154.359375 1030.296875 1156.054688 1028 1157.628906 C 1025.699219 1159.199219 1022.917969 1159.984375 1019.648438 1159.984375 "/>
<path fill-rule="nonzero" fill="rgb(0%, 0%, 0%)" fill-opacity="1" d="M 1165.410156 1159.984375 C 1162.023438 1159.984375 1159.238281 1159.199219 1157.058594 1157.628906 C 1154.882812 1156.054688 1153.796875 1154.359375 1153.796875 1152.542969 L 1153.796875 1081.023438 C 1153.796875 1078.84375 1154.882812 1077.09375 1157.058594 1075.757812 C 1159.238281 1074.429688 1162.023438 1073.761719 1165.410156 1073.761719 C 1168.679688 1073.761719 1171.460938 1074.429688 1173.761719 1075.757812 C 1176.058594 1077.09375 1177.210938 1078.84375 1177.210938 1081.023438 L 1177.210938 1152.542969 C 1177.210938 1154.359375 1176.058594 1156.054688 1173.761719 1157.628906 C 1171.460938 1159.199219 1168.679688 1159.984375 1165.410156 1159.984375 M 1165.410156 1054.519531 C 1161.902344 1054.519531 1158.875 1053.339844 1156.335938 1050.984375 C 1153.796875 1048.621094 1152.523438 1045.988281 1152.523438 1043.085938 C 1152.523438 1039.9375 1153.796875 1037.25 1156.335938 1035.007812 C 1158.875 1032.765625 1161.902344 1031.648438 1165.410156 1031.648438 C 1168.921875 1031.648438 1171.917969 1032.765625 1174.394531 1035.007812 C 1176.875 1037.25 1178.117188 1039.9375 1178.117188 1043.085938 C 1178.117188 1045.988281 1176.875 1048.621094 1174.394531 1050.984375 C 1171.917969 1053.339844 1168.921875 1054.519531 1165.410156 1054.519531 "/>
<path fill-rule="nonzero" fill="rgb(0%, 0%, 0%)" fill-opacity="1" d="M 1228.394531 1159.984375 C 1217.503906 1159.984375 1209.183594 1157.628906 1203.441406 1152.90625 C 1197.691406 1148.1875 1194.816406 1140.746094 1194.816406 1130.578125 L 1194.816406 1042.539062 C 1194.816406 1040.363281 1196.085938 1038.609375 1198.628906 1037.277344 C 1201.171875 1035.945312 1203.773438 1035.277344 1206.433594 1035.277344 C 1209.335938 1035.277344 1212.03125 1035.945312 1214.507812 1037.277344 C 1216.988281 1038.609375 1218.234375 1040.363281 1218.234375 1042.539062 L 1218.234375 1073.761719 L 1239.652344 1073.761719 C 1241.585938 1073.761719 1243.070312 1074.640625 1244.101562 1076.394531 C 1245.125 1078.148438 1245.640625 1080.117188 1245.640625 1082.292969 C 1245.640625 1084.472656 1245.125 1086.4375 1244.101562 1088.191406 C 1243.070312 1089.949219 1241.585938 1090.824219 1239.652344 1090.824219 L 1218.234375 1090.824219 L 1218.234375 1130.578125 C 1218.234375 1134.089844 1218.988281 1136.570312 1220.5 1138.019531 C 1222.011719 1139.472656 1224.644531 1140.199219 1228.394531 1140.199219 L 1235.476562 1140.199219 C 1238.863281 1140.199219 1241.375 1141.230469 1243.007812 1143.285156 C 1244.644531 1145.34375 1245.460938 1147.582031 1245.460938 1150.003906 C 1245.460938 1152.542969 1244.644531 1154.84375 1243.007812 1156.898438 C 1241.375 1158.960938 1238.863281 1159.984375 1235.476562 1159.984375 Z M 1228.394531 1159.984375 "/>
<path fill-rule="nonzero" fill="rgb(0%, 0%, 0%)" fill-opacity="1" d="M 1270.871094 1159.984375 C 1267.480469 1159.984375 1264.699219 1159.199219 1262.523438 1157.628906 C 1260.34375 1156.054688 1259.253906 1154.359375 1259.253906 1152.542969 L 1259.253906 1030.742188 C 1259.253906 1028.5625 1260.34375 1026.8125 1262.523438 1025.476562 C 1264.699219 1024.148438 1267.480469 1023.480469 1270.871094 1023.480469 C 1274.140625 1023.480469 1276.921875 1024.148438 1279.226562 1025.476562 C 1281.519531 1026.8125 1282.671875 1028.5625 1282.671875 1030.742188 L 1282.671875 1152.542969 C 1282.671875 1154.359375 1281.519531 1156.054688 1279.226562 1157.628906 C 1276.921875 1159.199219 1274.140625 1159.984375 1270.871094 1159.984375 "/>
<path fill-rule="nonzero" fill="rgb(0%, 0%, 0%)" fill-opacity="1" d="M 1322.605469 1109.160156 L 1349.105469 1109.160156 C 1351.164062 1109.160156 1352.582031 1108.828125 1353.375 1108.160156 C 1354.160156 1107.5 1354.554688 1106.195312 1354.554688 1104.257812 C 1354.554688 1101.476562 1353.828125 1098.992188 1352.375 1096.8125 C 1350.921875 1094.636719 1348.984375 1092.941406 1346.566406 1091.734375 C 1344.144531 1090.523438 1341.484375 1089.917969 1338.578125 1089.917969 C 1335.792969 1089.917969 1333.195312 1090.496094 1330.773438 1091.640625 C 1328.351562 1092.792969 1326.386719 1094.429688 1324.875 1096.546875 C 1323.359375 1098.660156 1322.605469 1101.171875 1322.605469 1104.078125 Z M 1343.117188 1161.621094 C 1334.523438 1161.621094 1326.929688 1160.074219 1320.335938 1156.988281 C 1313.742188 1153.902344 1308.566406 1149.546875 1304.816406 1143.921875 C 1301.066406 1138.292969 1299.1875 1131.789062 1299.1875 1124.40625 L 1299.1875 1108.976562 C 1299.1875 1102.441406 1300.972656 1096.421875 1304.546875 1090.917969 C 1308.113281 1085.410156 1312.894531 1080.996094 1318.886719 1077.664062 C 1324.875 1074.335938 1331.558594 1072.675781 1338.941406 1072.675781 C 1345.71875 1072.675781 1351.921875 1074.125 1357.546875 1077.03125 C 1363.175781 1079.933594 1367.742188 1083.929688 1371.25 1089.007812 C 1374.761719 1094.09375 1376.519531 1100.023438 1376.519531 1106.796875 C 1376.519531 1112.003906 1375.671875 1115.726562 1373.976562 1117.964844 C 1372.28125 1120.203125 1370.132812 1121.59375 1367.535156 1122.140625 C 1364.929688 1122.683594 1362.238281 1122.957031 1359.453125 1122.957031 L 1322.605469 1122.957031 L 1322.605469 1125.679688 C 1322.605469 1130.882812 1324.574219 1135.085938 1328.503906 1138.292969 C 1332.4375 1141.5 1337.550781 1143.101562 1343.84375 1143.101562 C 1347.835938 1143.101562 1351.164062 1142.5 1353.828125 1141.289062 C 1356.488281 1140.082031 1358.789062 1138.925781 1360.722656 1137.839844 C 1362.660156 1136.75 1364.472656 1136.207031 1366.171875 1136.207031 C 1367.988281 1136.207031 1369.558594 1136.8125 1370.890625 1138.019531 C 1372.222656 1139.230469 1373.25 1140.652344 1373.976562 1142.285156 C 1374.703125 1143.921875 1375.066406 1145.34375 1375.066406 1146.554688 C 1375.066406 1148.613281 1373.761719 1150.820312 1371.164062 1153.175781 C 1368.558594 1155.539062 1364.871094 1157.53125 1360.089844 1159.167969 C 1355.308594 1160.804688 1349.65625 1161.621094 1343.117188 1161.621094 "/>
<path fill-rule="nonzero" fill="rgb(0%, 0%, 0%)" fill-opacity="1" d="M 1418.628906 1161.621094 C 1412.574219 1161.621094 1407.039062 1160.859375 1402.015625 1159.351562 C 1396.996094 1157.839844 1393.0625 1155.871094 1390.21875 1153.449219 C 1387.375 1151.03125 1385.953125 1148.550781 1385.953125 1146.007812 C 1385.953125 1144.800781 1386.285156 1143.378906 1386.953125 1141.742188 C 1387.613281 1140.105469 1388.523438 1138.6875 1389.675781 1137.476562 C 1390.824219 1136.265625 1392.1875 1135.660156 1393.757812 1135.660156 C 1395.449219 1135.660156 1397.234375 1136.355469 1399.113281 1137.75 C 1400.988281 1139.140625 1403.347656 1140.503906 1406.191406 1141.832031 C 1409.035156 1143.167969 1413 1143.832031 1418.082031 1143.832031 C 1423.527344 1143.832031 1427.125 1142.984375 1428.882812 1141.289062 C 1430.636719 1139.597656 1431.515625 1137.839844 1431.515625 1136.023438 C 1431.515625 1133.363281 1430.453125 1131.304688 1428.339844 1129.851562 C 1426.21875 1128.398438 1423.527344 1127.191406 1420.261719 1126.222656 C 1416.992188 1125.257812 1413.515625 1124.257812 1409.820312 1123.226562 C 1406.132812 1122.199219 1402.652344 1120.808594 1399.386719 1119.054688 C 1396.117188 1117.296875 1393.457031 1114.878906 1391.398438 1111.792969 C 1389.339844 1108.707031 1388.3125 1104.683594 1388.3125 1099.71875 C 1388.3125 1095.363281 1389.339844 1091.128906 1391.398438 1087.015625 C 1393.457031 1082.898438 1396.84375 1079.480469 1401.5625 1076.757812 C 1406.28125 1074.035156 1412.695312 1072.675781 1420.808594 1072.675781 C 1425.765625 1072.675781 1430.453125 1073.191406 1434.871094 1074.214844 C 1439.289062 1075.242188 1442.890625 1076.667969 1445.675781 1078.480469 C 1448.453125 1080.296875 1449.851562 1082.292969 1449.851562 1084.472656 C 1449.851562 1085.558594 1449.484375 1086.984375 1448.757812 1088.738281 C 1448.03125 1090.492188 1447.035156 1092.09375 1445.765625 1093.550781 C 1444.492188 1095 1442.953125 1095.726562 1441.136719 1095.726562 C 1439.804688 1095.726562 1438.199219 1095.273438 1436.324219 1094.367188 C 1434.445312 1093.460938 1432.300781 1092.578125 1429.882812 1091.734375 C 1427.457031 1090.886719 1424.554688 1090.464844 1421.167969 1090.464844 C 1418.144531 1090.464844 1415.722656 1090.886719 1413.90625 1091.734375 C 1412.09375 1092.578125 1410.761719 1093.609375 1409.910156 1094.820312 C 1409.066406 1096.027344 1408.644531 1097.300781 1408.644531 1098.628906 C 1408.644531 1100.808594 1409.667969 1102.503906 1411.730469 1103.714844 C 1413.78125 1104.925781 1416.476562 1105.953125 1419.804688 1106.796875 C 1423.132812 1107.644531 1426.640625 1108.585938 1430.335938 1109.613281 C 1434.023438 1110.640625 1437.53125 1112.15625 1440.863281 1114.148438 C 1444.191406 1116.148438 1446.882812 1118.78125 1448.941406 1122.046875 C 1450.996094 1125.3125 1452.027344 1129.671875 1452.027344 1135.117188 C 1452.027344 1143.101562 1449.148438 1149.519531 1443.40625 1154.359375 C 1437.65625 1159.199219 1429.394531 1161.621094 1418.628906 1161.621094 "/>
<path fill-rule="nonzero" fill="rgb(0%, 0%, 0%)" fill-opacity="1" d="M 1494.320312 1161.621094 C 1488.265625 1161.621094 1482.730469 1160.859375 1477.714844 1159.351562 C 1472.6875 1157.839844 1468.753906 1155.871094 1465.914062 1153.449219 C 1463.066406 1151.03125 1461.648438 1148.550781 1461.648438 1146.007812 C 1461.648438 1144.800781 1461.980469 1143.378906 1462.644531 1141.742188 C 1463.308594 1140.105469 1464.21875 1138.6875 1465.367188 1137.476562 C 1466.515625 1136.265625 1467.878906 1135.660156 1469.453125 1135.660156 C 1471.148438 1135.660156 1472.929688 1136.355469 1474.808594 1137.75 C 1476.679688 1139.140625 1479.042969 1140.503906 1481.886719 1141.832031 C 1484.726562 1143.167969 1488.691406 1143.832031 1493.777344 1143.832031 C 1499.21875 1143.832031 1502.824219 1142.984375 1504.578125 1141.289062 C 1506.332031 1139.597656 1507.210938 1137.839844 1507.210938 1136.023438 C 1507.210938 1133.363281 1506.144531 1131.304688 1504.03125 1129.851562 C 1501.914062 1128.398438 1499.21875 1127.191406 1495.957031 1126.222656 C 1492.6875 1125.257812 1489.207031 1124.257812 1485.519531 1123.226562 C 1481.824219 1122.199219 1478.347656 1120.808594 1475.082031 1119.054688 C 1471.8125 1117.296875 1469.148438 1114.878906 1467.09375 1111.792969 C 1465.035156 1108.707031 1464.007812 1104.683594 1464.007812 1099.71875 C 1464.007812 1095.363281 1465.035156 1091.128906 1467.09375 1087.015625 C 1469.148438 1082.898438 1472.539062 1079.480469 1477.257812 1076.757812 C 1481.980469 1074.035156 1488.386719 1072.675781 1496.5 1072.675781 C 1501.460938 1072.675781 1506.144531 1073.191406 1510.570312 1074.214844 C 1514.984375 1075.242188 1518.582031 1076.667969 1521.367188 1078.480469 C 1524.148438 1080.296875 1525.542969 1082.292969 1525.542969 1084.472656 C 1525.542969 1085.558594 1525.179688 1086.984375 1524.457031 1088.738281 C 1523.726562 1090.492188 1522.730469 1092.09375 1521.460938 1093.550781 C 1520.1875 1095 1518.644531 1095.726562 1516.832031 1095.726562 C 1515.496094 1095.726562 1513.894531 1095.273438 1512.019531 1094.367188 C 1510.140625 1093.460938 1507.996094 1092.578125 1505.574219 1091.734375 C 1503.15625 1090.886719 1500.25 1090.464844 1496.863281 1090.464844 C 1493.835938 1090.464844 1491.417969 1090.886719 1489.601562 1091.734375 C 1487.785156 1092.578125 1486.453125 1093.609375 1485.609375 1094.820312 C 1484.757812 1096.027344 1484.335938 1097.300781 1484.335938 1098.628906 C 1484.335938 1100.808594 1485.367188 1102.503906 1487.421875 1103.714844 C 1489.480469 1104.925781 1492.171875 1105.953125 1495.503906 1106.796875 C 1498.832031 1107.644531 1502.339844 1108.585938 1506.03125 1109.613281 C 1509.71875 1110.640625 1513.226562 1112.15625 1516.554688 1114.148438 C 1519.882812 1116.148438 1522.574219 1118.78125 1524.636719 1122.046875 C 1526.691406 1125.3125 1527.71875 1129.671875 1527.71875 1135.117188 C 1527.71875 1143.101562 1524.847656 1149.519531 1519.097656 1154.359375 C 1513.347656 1159.199219 1505.089844 1161.621094 1494.320312 1161.621094 "/>
<path fill-rule="nonzero" fill="rgb(0%, 0%, 0%)" fill-opacity="1" d="M 958.292969 1294.34375 C 949.097656 1294.34375 941.597656 1292.707031 935.785156 1289.441406 C 929.980469 1286.175781 925.679688 1281.726562 922.898438 1276.101562 C 920.113281 1270.472656 918.722656 1264.152344 918.722656 1257.128906 L 918.722656 1242.609375 C 918.722656 1235.589844 920.085938 1229.269531 922.808594 1223.640625 C 925.53125 1218.015625 929.824219 1213.5625 935.695312 1210.296875 C 941.566406 1207.03125 948.976562 1205.398438 957.933594 1205.398438 C 963.621094 1205.398438 968.640625 1206.0625 973 1207.394531 C 977.355469 1208.726562 980.804688 1210.480469 983.347656 1212.65625 C 985.886719 1214.835938 987.160156 1217.136719 987.160156 1219.554688 C 987.160156 1220.886719 986.765625 1222.460938 985.976562 1224.273438 C 985.191406 1226.089844 984.101562 1227.664062 982.710938 1228.992188 C 981.320312 1230.328125 979.714844 1230.992188 977.902344 1230.992188 C 976.570312 1230.992188 975.203125 1230.570312 973.816406 1229.722656 C 972.425781 1228.875 970.640625 1228.027344 968.460938 1227.179688 C 966.285156 1226.335938 963.378906 1225.910156 959.75 1225.910156 C 953.574219 1225.910156 949.097656 1227.390625 946.316406 1230.355469 C 943.527344 1233.324219 942.140625 1237.40625 942.140625 1242.609375 L 942.140625 1257.128906 C 942.140625 1262.335938 943.527344 1266.417969 946.316406 1269.382812 C 949.097656 1272.351562 953.636719 1273.828125 959.929688 1273.828125 C 963.679688 1273.828125 966.585938 1273.347656 968.640625 1272.378906 C 970.699219 1271.410156 972.425781 1270.503906 973.816406 1269.65625 C 975.203125 1268.8125 976.632812 1268.386719 978.082031 1268.386719 C 980.261719 1268.386719 982.101562 1268.992188 983.617188 1270.199219 C 985.128906 1271.410156 986.277344 1272.894531 987.066406 1274.648438 C 987.855469 1276.402344 988.246094 1278.003906 988.246094 1279.457031 C 988.246094 1281.878906 986.945312 1284.238281 984.34375 1286.539062 C 981.742188 1288.835938 978.171875 1290.710938 973.636719 1292.164062 C 969.097656 1293.617188 963.984375 1294.34375 958.292969 1294.34375 "/>
<path fill-rule="nonzero" fill="rgb(0%, 0%, 0%)" fill-opacity="1" d="M 1035.445312 1273.828125 C 1038.347656 1273.828125 1041.011719 1273.046875 1043.429688 1271.472656 C 1045.851562 1269.898438 1047.789062 1267.808594 1049.238281 1265.210938 C 1050.691406 1262.609375 1051.417969 1259.914062 1051.417969 1257.132812 L 1051.417969 1242.246094 C 1051.417969 1239.464844 1050.691406 1236.863281 1049.238281 1234.441406 C 1047.789062 1232.019531 1045.882812 1229.992188 1043.519531 1228.359375 C 1041.164062 1226.726562 1038.46875 1225.910156 1035.445312 1225.910156 C 1032.539062 1225.910156 1029.878906 1226.699219 1027.457031 1228.265625 C 1025.035156 1229.84375 1023.128906 1231.871094 1021.738281 1234.347656 C 1020.347656 1236.832031 1019.652344 1239.464844 1019.652344 1242.246094 L 1019.652344 1257.132812 C 1019.652344 1259.914062 1020.347656 1262.609375 1021.738281 1265.210938 C 1023.128906 1267.808594 1025.035156 1269.898438 1027.457031 1271.472656 C 1029.878906 1273.046875 1032.539062 1273.828125 1035.445312 1273.828125 M 1035.445312 1294.34375 C 1028.421875 1294.34375 1021.949219 1292.617188 1016.019531 1289.171875 C 1010.089844 1285.722656 1005.3125 1281.152344 1001.679688 1275.464844 C 998.050781 1269.777344 996.234375 1263.664062 996.234375 1257.132812 L 996.234375 1242.246094 C 996.234375 1235.714844 997.988281 1229.628906 1001.5 1224.003906 C 1005.007812 1218.378906 1009.757812 1213.867188 1015.75 1210.476562 C 1021.738281 1207.09375 1028.300781 1205.398438 1035.445312 1205.398438 C 1042.582031 1205.398438 1049.148438 1207.058594 1055.140625 1210.386719 C 1061.128906 1213.71875 1065.910156 1218.167969 1069.480469 1223.730469 C 1073.046875 1229.300781 1074.832031 1235.46875 1074.832031 1242.246094 L 1074.832031 1257.132812 C 1074.832031 1263.546875 1073.019531 1269.597656 1069.386719 1275.28125 C 1065.757812 1280.972656 1060.945312 1285.566406 1054.960938 1289.082031 C 1048.96875 1292.589844 1042.460938 1294.34375 1035.445312 1294.34375 "/>
<path fill-rule="nonzero" fill="rgb(0%, 0%, 0%)" fill-opacity="1" d="M 1101.335938 1292.710938 C 1097.945312 1292.710938 1095.164062 1291.921875 1092.984375 1290.351562 C 1090.808594 1288.777344 1089.71875 1287.082031 1089.71875 1285.265625 L 1089.71875 1213.746094 C 1089.71875 1211.570312 1090.808594 1209.816406 1092.984375 1208.484375 C 1095.164062 1207.152344 1097.945312 1206.484375 1101.335938 1206.484375 C 1104.238281 1206.484375 1106.691406 1207.152344 1108.6875 1208.484375 C 1110.683594 1209.816406 1111.683594 1211.570312 1111.683594 1213.746094 L 1111.683594 1219.191406 C 1113.738281 1215.683594 1116.765625 1212.507812 1120.757812 1209.660156 C 1124.75 1206.820312 1129.769531 1205.398438 1135.824219 1205.398438 C 1141.027344 1205.398438 1145.628906 1207.09375 1149.621094 1210.480469 C 1153.613281 1213.867188 1156.578125 1218.226562 1158.515625 1223.546875 C 1161.660156 1217.375 1165.6875 1212.8125 1170.585938 1209.84375 C 1175.488281 1206.878906 1180.539062 1205.398438 1185.742188 1205.398438 C 1191.308594 1205.398438 1196.542969 1206.820312 1201.445312 1209.660156 C 1206.347656 1212.507812 1210.339844 1216.683594 1213.425781 1222.1875 C 1216.511719 1227.695312 1218.054688 1234.378906 1218.054688 1242.246094 L 1218.054688 1285.265625 C 1218.054688 1287.082031 1216.902344 1288.777344 1214.605469 1290.351562 C 1212.308594 1291.921875 1209.523438 1292.710938 1206.253906 1292.710938 C 1203.105469 1292.710938 1200.386719 1291.921875 1198.089844 1290.351562 C 1195.785156 1288.777344 1194.640625 1287.082031 1194.640625 1285.265625 L 1194.640625 1242.246094 C 1194.640625 1238.613281 1193.9375 1235.589844 1192.550781 1233.171875 C 1191.160156 1230.75 1189.3125 1228.902344 1187.015625 1227.632812 C 1184.714844 1226.363281 1182.355469 1225.726562 1179.9375 1225.726562 C 1177.511719 1225.726562 1175.242188 1226.363281 1173.128906 1227.632812 C 1171.007812 1228.902344 1169.226562 1230.75 1167.773438 1233.171875 C 1166.320312 1235.589844 1165.597656 1238.554688 1165.597656 1242.0625 L 1165.597656 1285.445312 C 1165.597656 1287.988281 1164.351562 1289.835938 1161.871094 1290.984375 C 1159.390625 1292.136719 1156.699219 1292.710938 1153.796875 1292.710938 C 1151.132812 1292.710938 1148.53125 1292.136719 1145.988281 1290.984375 C 1143.449219 1289.835938 1142.179688 1287.988281 1142.179688 1285.445312 L 1142.179688 1242.246094 C 1142.179688 1238.859375 1141.480469 1235.953125 1140.09375 1233.535156 C 1138.699219 1231.113281 1136.886719 1229.234375 1134.644531 1227.90625 C 1132.402344 1226.574219 1130.019531 1225.910156 1127.476562 1225.910156 C 1125.050781 1225.910156 1122.757812 1226.515625 1120.578125 1227.722656 C 1118.398438 1228.9375 1116.613281 1230.75 1115.226562 1233.171875 C 1113.828125 1235.589844 1113.136719 1238.613281 1113.136719 1242.246094 L 1113.136719 1285.265625 C 1113.136719 1287.082031 1111.980469 1288.777344 1109.6875 1290.351562 C 1107.386719 1291.921875 1104.605469 1292.710938 1101.335938 1292.710938 "/>
<path fill-rule="nonzero" fill="rgb(0%, 0%, 0%)" fill-opacity="1" d="M 1275.230469 1273.828125 C 1278.136719 1273.828125 1280.769531 1273.015625 1283.128906 1271.382812 C 1285.488281 1269.746094 1287.425781 1267.65625 1288.9375 1265.117188 C 1290.453125 1262.574219 1291.207031 1259.914062 1291.207031 1257.132812 L 1291.207031 1242.246094 C 1291.207031 1239.464844 1290.480469 1236.863281 1289.027344 1234.441406 C 1287.578125 1232.019531 1285.605469 1229.992188 1283.128906 1228.359375 C 1280.648438 1226.726562 1277.894531 1225.910156 1274.871094 1225.910156 C 1272.207031 1225.910156 1269.699219 1226.574219 1267.335938 1227.90625 C 1264.976562 1229.234375 1263.007812 1231.113281 1261.4375 1233.535156 C 1259.863281 1235.957031 1259.078125 1238.859375 1259.078125 1242.246094 L 1259.078125 1260.394531 C 1259.078125 1261.609375 1259.773438 1263.273438 1261.167969 1265.390625 C 1262.554688 1267.507812 1264.460938 1269.445312 1266.882812 1271.195312 C 1269.304688 1272.953125 1272.085938 1273.828125 1275.230469 1273.828125 M 1247.09375 1332.828125 C 1243.832031 1332.828125 1241.109375 1332.035156 1238.929688 1330.464844 C 1236.753906 1328.890625 1235.660156 1327.199219 1235.660156 1325.382812 L 1235.660156 1213.746094 C 1235.660156 1211.570312 1236.753906 1209.816406 1238.929688 1208.484375 C 1241.109375 1207.152344 1243.765625 1206.484375 1246.917969 1206.484375 C 1250.058594 1206.484375 1252.632812 1207.152344 1254.628906 1208.484375 C 1256.625 1209.816406 1257.628906 1211.570312 1257.628906 1213.746094 L 1257.628906 1219.191406 C 1259.683594 1215.683594 1262.828125 1212.507812 1267.066406 1209.660156 C 1271.296875 1206.820312 1276.324219 1205.398438 1282.128906 1205.398438 C 1288.179688 1205.398438 1293.683594 1207.058594 1298.648438 1210.386719 C 1303.613281 1213.71875 1307.511719 1218.167969 1310.355469 1223.730469 C 1313.199219 1229.300781 1314.625 1235.46875 1314.625 1242.246094 L 1314.625 1257.132812 C 1314.625 1263.546875 1313.171875 1269.597656 1310.265625 1275.28125 C 1307.363281 1280.972656 1303.488281 1285.566406 1298.648438 1289.082031 C 1293.808594 1292.589844 1288.542969 1294.34375 1282.855469 1294.34375 C 1277.53125 1294.34375 1272.695312 1292.890625 1268.335938 1289.984375 C 1263.976562 1287.082031 1260.890625 1283.753906 1259.078125 1280.003906 L 1259.078125 1325.382812 C 1259.078125 1327.199219 1257.925781 1328.890625 1255.628906 1330.464844 C 1253.328125 1332.035156 1250.480469 1332.828125 1247.09375 1332.828125 "/>
<path fill-rule="nonzero" fill="rgb(0%, 0%, 0%)" fill-opacity="1" d="M 1357.644531 1276.917969 C 1360.183594 1276.917969 1362.726562 1276.070312 1365.269531 1274.375 C 1367.808594 1272.683594 1369.957031 1270.503906 1371.710938 1267.84375 C 1373.464844 1265.179688 1374.34375 1262.394531 1374.34375 1259.488281 L 1374.34375 1255.679688 L 1371.621094 1255.679688 C 1367.625 1255.679688 1363.8125 1255.921875 1360.183594 1256.402344 C 1356.554688 1256.890625 1353.621094 1257.949219 1351.382812 1259.582031 C 1349.140625 1261.214844 1348.023438 1263.726562 1348.023438 1267.113281 C 1348.023438 1270.503906 1348.957031 1272.984375 1350.835938 1274.554688 C 1352.710938 1276.132812 1354.980469 1276.917969 1357.644531 1276.917969 M 1348.203125 1294.34375 C 1341.789062 1294.34375 1336.253906 1292.375 1331.59375 1288.441406 C 1326.933594 1284.511719 1324.605469 1278.433594 1324.605469 1270.199219 C 1324.605469 1263.300781 1326.390625 1257.921875 1329.960938 1254.046875 C 1333.53125 1250.175781 1338.492188 1247.449219 1344.847656 1245.875 C 1351.199219 1244.304688 1358.550781 1243.519531 1366.902344 1243.519531 L 1374.34375 1243.519531 L 1374.34375 1241.15625 C 1374.34375 1238.496094 1373.828125 1235.894531 1372.800781 1233.351562 C 1371.773438 1230.808594 1370.136719 1228.691406 1367.902344 1226.996094 C 1365.660156 1225.304688 1362.480469 1224.457031 1358.371094 1224.457031 C 1353.769531 1224.457031 1350.230469 1224.910156 1347.75 1225.816406 C 1345.269531 1226.726562 1343.363281 1227.664062 1342.03125 1228.632812 C 1340.699219 1229.601562 1339.246094 1230.085938 1337.675781 1230.085938 C 1335.132812 1230.085938 1333.167969 1228.8125 1331.777344 1226.273438 C 1330.382812 1223.730469 1329.691406 1221.128906 1329.691406 1218.46875 C 1329.691406 1215.925781 1331.230469 1213.65625 1334.316406 1211.660156 C 1337.402344 1209.660156 1341.183594 1208.121094 1345.664062 1207.027344 C 1350.136719 1205.941406 1354.496094 1205.398438 1358.734375 1205.398438 C 1368.167969 1205.398438 1375.734375 1207.09375 1381.421875 1210.480469 C 1387.109375 1213.867188 1391.253906 1218.226562 1393.859375 1223.546875 C 1396.457031 1228.875 1397.761719 1234.621094 1397.761719 1240.792969 L 1397.761719 1285.265625 C 1397.761719 1287.324219 1396.667969 1289.078125 1394.492188 1290.53125 C 1392.3125 1291.980469 1389.589844 1292.710938 1386.324219 1292.710938 C 1383.296875 1292.710938 1380.789062 1291.980469 1378.789062 1290.53125 C 1376.792969 1289.078125 1375.792969 1287.324219 1375.792969 1285.265625 L 1375.792969 1280.003906 C 1372.53125 1283.753906 1368.6875 1287.082031 1364.269531 1289.984375 C 1359.847656 1292.890625 1354.496094 1294.34375 1348.203125 1294.34375 "/>
<path fill-rule="nonzero" fill="rgb(0%, 0%, 0%)" fill-opacity="1" d="M 1426.800781 1292.710938 C 1423.414062 1292.710938 1420.628906 1291.921875 1418.453125 1290.351562 C 1416.273438 1288.777344 1415.1875 1287.082031 1415.1875 1285.265625 L 1415.1875 1213.746094 C 1415.1875 1211.570312 1416.273438 1209.816406 1418.453125 1208.484375 C 1420.628906 1207.152344 1423.414062 1206.484375 1426.800781 1206.484375 C 1429.707031 1206.484375 1432.15625 1207.152344 1434.152344 1208.484375 C 1436.152344 1209.816406 1437.148438 1211.570312 1437.148438 1213.746094 L 1437.148438 1219.191406 C 1438.964844 1215.683594 1441.957031 1212.507812 1446.136719 1209.660156 C 1450.3125 1206.820312 1455.421875 1205.398438 1461.472656 1205.398438 C 1467.160156 1205.398438 1472.367188 1207.0625 1477.082031 1210.386719 C 1481.804688 1213.71875 1485.582031 1218.164062 1488.429688 1223.730469 C 1491.269531 1229.300781 1492.695312 1235.46875 1492.695312 1242.246094 L 1492.695312 1285.265625 C 1492.695312 1287.6875 1491.484375 1289.53125 1489.066406 1290.804688 C 1486.644531 1292.074219 1483.917969 1292.710938 1480.894531 1292.710938 C 1478.234375 1292.710938 1475.632812 1292.074219 1473.089844 1290.804688 C 1470.546875 1289.53125 1469.277344 1287.6875 1469.277344 1285.265625 L 1469.277344 1242.246094 C 1469.277344 1239.464844 1468.582031 1236.863281 1467.191406 1234.441406 C 1465.796875 1232.019531 1463.894531 1229.992188 1461.472656 1228.359375 C 1459.050781 1226.726562 1456.390625 1225.910156 1453.488281 1225.910156 C 1451.066406 1225.910156 1448.703125 1226.574219 1446.40625 1227.90625 C 1444.105469 1229.234375 1442.230469 1231.113281 1440.78125 1233.535156 C 1439.324219 1235.953125 1438.601562 1238.859375 1438.601562 1242.246094 L 1438.601562 1285.265625 C 1438.601562 1287.082031 1437.449219 1288.777344 1435.152344 1290.351562 C 1432.851562 1291.921875 1430.070312 1292.710938 1426.800781 1292.710938 "/>
<path fill-rule="nonzero" fill="rgb(0%, 0%, 0%)" fill-opacity="1" d="M 1511.574219 1332.828125 C 1508.546875 1332.828125 1506.003906 1332.25 1503.949219 1331.101562 C 1501.886719 1329.949219 1500.863281 1327.199219 1500.863281 1322.84375 C 1500.863281 1320.175781 1501.316406 1317.878906 1502.222656 1315.945312 C 1503.132812 1314.007812 1504.675781 1313.039062 1506.851562 1313.039062 C 1508.90625 1313.039062 1511.300781 1312.675781 1514.019531 1311.949219 C 1516.742188 1311.222656 1519.496094 1309.863281 1522.28125 1307.867188 C 1525.0625 1305.867188 1527.421875 1303.144531 1529.363281 1299.695312 C 1531.296875 1296.25 1532.449219 1291.800781 1532.8125 1286.355469 L 1501.589844 1219.554688 C 1501.101562 1218.46875 1500.863281 1217.4375 1500.863281 1216.46875 C 1500.863281 1214.410156 1501.738281 1212.539062 1503.496094 1210.84375 C 1505.246094 1209.148438 1507.335938 1207.785156 1509.753906 1206.757812 C 1512.175781 1205.730469 1514.414062 1205.214844 1516.472656 1205.214844 C 1517.925781 1205.214844 1519.285156 1205.519531 1520.554688 1206.121094 C 1521.828125 1206.730469 1522.703125 1207.757812 1523.1875 1209.207031 L 1544.972656 1263.484375 L 1562.398438 1209.207031 C 1563 1207.757812 1563.90625 1206.730469 1565.121094 1206.121094 C 1566.328125 1205.519531 1567.542969 1205.214844 1568.75 1205.214844 C 1570.566406 1205.214844 1572.746094 1205.730469 1575.289062 1206.757812 C 1577.828125 1207.785156 1580.035156 1209.179688 1581.914062 1210.929688 C 1583.785156 1212.6875 1584.722656 1214.652344 1584.722656 1216.832031 C 1584.722656 1217.921875 1584.542969 1218.832031 1584.179688 1219.554688 L 1557.679688 1287.261719 C 1555.5 1292.710938 1553.382812 1298.125 1551.324219 1303.511719 C 1549.265625 1308.890625 1546.695312 1313.792969 1543.609375 1318.214844 C 1540.523438 1322.628906 1536.441406 1326.167969 1531.355469 1328.832031 C 1526.273438 1331.492188 1519.675781 1332.828125 1511.574219 1332.828125 "/>
<path fill-rule="nonzero" fill="rgb(0%, 0%, 0%)" fill-opacity="1" d="M 685.25 1299.21875 C 670.675781 1302.070312 655.6875 1303.132812 640.703125 1302.386719 L 624.09375 1301.554688 C 615.328125 1301.140625 607.800781 1307.890625 607.359375 1316.695312 C 606.917969 1325.496094 613.695312 1332.988281 622.496094 1333.425781 L 639.109375 1334.257812 C 642.738281 1334.441406 646.371094 1334.53125 650 1334.53125 C 663.925781 1334.53125 677.800781 1333.195312 691.375 1330.542969 C 700.023438 1328.851562 705.664062 1320.46875 703.972656 1311.820312 C 702.28125 1303.171875 693.902344 1297.53125 685.25 1299.21875 "/>
<path fill-rule="nonzero" fill="rgb(0%, 0%, 0%)" fill-opacity="1" d="M 431.234375 896.9375 C 440.046875 896.9375 447.191406 889.792969 447.191406 880.980469 C 447.191406 779.746094 529.554688 697.382812 630.792969 697.382812 L 647.421875 697.382812 C 748.65625 697.382812 831.019531 779.746094 831.019531 880.980469 L 831.019531 994.453125 C 831.019531 1003.265625 838.164062 1010.410156 846.976562 1010.410156 C 855.789062 1010.410156 862.933594 1003.265625 862.933594 994.453125 L 862.933594 880.980469 C 862.933594 762.148438 766.253906 665.46875 647.421875 665.46875 L 630.792969 665.46875 C 511.957031 665.46875 415.277344 762.148438 415.277344 880.980469 C 415.277344 889.792969 422.421875 896.9375 431.234375 896.9375 "/>
<path fill-rule="nonzero" fill="rgb(0%, 0%, 0%)" fill-opacity="1" d="M 639.105469 746.292969 C 719.515625 746.292969 780.152344 809.242188 780.152344 892.71875 C 780.152344 969.136719 780.152344 1064.238281 846.976562 1064.238281 C 855.789062 1064.238281 862.933594 1057.09375 862.933594 1048.28125 C 862.933594 1039.46875 855.789062 1032.324219 846.976562 1032.324219 C 840.246094 1032.324219 827.722656 1032.324219 819.765625 1001.050781 C 813.375 975.929688 812.066406 939.574219 812.066406 892.71875 C 812.066406 792.714844 736.09375 714.378906 639.105469 714.378906 C 562.664062 714.378906 480.816406 774.050781 480.816406 862.886719 C 480.816406 882.296875 476.050781 896.328125 466.648438 904.582031 C 453.4375 916.183594 433.976562 913.914062 433.433594 913.84375 C 424.742188 912.628906 416.710938 918.664062 415.445312 927.347656 C 414.175781 936.070312 420.214844 944.167969 428.9375 945.4375 C 430.308594 945.636719 462.824219 950.089844 487.347656 928.871094 C 504.191406 914.304688 512.730469 892.101562 512.730469 862.886719 C 512.730469 793.144531 578.074219 746.292969 639.105469 746.292969 "/>
<path fill-rule="nonzero" fill="rgb(0%, 0%, 0%)" fill-opacity="1" d="M 449.804688 1170.484375 C 450.875 1170.484375 451.957031 1170.375 453.046875 1170.152344 C 461.675781 1168.371094 467.230469 1159.925781 465.449219 1151.296875 C 460.285156 1126.289062 459.695312 1055.824219 459.90625 1030.78125 C 459.980469 1021.96875 452.898438 1014.765625 444.085938 1014.691406 C 435.441406 1014.589844 428.070312 1021.699219 427.992188 1030.511719 C 427.960938 1034.328125 427.289062 1124.304688 434.191406 1157.753906 C 435.75 1165.292969 442.394531 1170.484375 449.804688 1170.484375 "/>
<path fill-rule="nonzero" fill="rgb(0%, 0%, 0%)" fill-opacity="1" d="M 835.847656 1183.078125 C 794.496094 1181.488281 734.128906 1144.679688 701.910156 1111.488281 C 666.460938 1074.960938 629.722656 1103.054688 594.199219 1130.222656 C 584.691406 1137.496094 574.859375 1145.011719 564.003906 1152.515625 C 514.996094 1186.375 450.207031 1188.554688 449.410156 1188.574219 C 440.609375 1188.800781 433.652344 1196.113281 433.867188 1204.921875 C 434.082031 1213.597656 441.183594 1220.484375 449.8125 1220.484375 C 449.949219 1220.484375 450.082031 1220.480469 450.214844 1220.480469 C 453.246094 1220.402344 525.082031 1218.195312 582.148438 1178.769531 C 593.636719 1170.832031 604.238281 1162.726562 613.585938 1155.574219 C 655.878906 1123.226562 665.664062 1119.964844 679.011719 1133.714844 C 710.523438 1166.183594 779.636719 1212.855469 834.625 1214.964844 C 843.46875 1215.324219 850.847656 1208.4375 851.179688 1199.632812 C 851.519531 1190.828125 844.65625 1183.414062 835.847656 1183.078125 "/>
<path fill-rule="nonzero" fill="rgb(0%, 0%, 0%)" fill-opacity="1" d="M 814.121094 1234.851562 C 796.019531 1233.273438 739.1875 1210.738281 705.851562 1182.765625 C 668.449219 1151.382812 650.277344 1161.914062 618.785156 1184.925781 C 613.644531 1188.679688 607.816406 1192.941406 601.195312 1197.5 C 561.089844 1225.128906 468.707031 1234.777344 467.777344 1234.871094 C 459.011719 1235.761719 452.621094 1243.585938 453.511719 1252.355469 C 454.34375 1260.578125 461.273438 1266.707031 469.367188 1266.707031 C 469.902344 1266.707031 470.441406 1266.675781 470.988281 1266.621094 C 475.109375 1266.207031 572.445312 1256.058594 619.300781 1223.78125 C 626.285156 1218.96875 632.304688 1214.574219 637.613281 1210.695312 C 649.050781 1202.339844 658.085938 1195.742188 663.539062 1195.066406 C 666.28125 1194.707031 671.515625 1195.617188 685.339844 1207.210938 C 721.035156 1237.167969 783.46875 1264.21875 811.355469 1266.644531 C 820.140625 1267.4375 827.875 1260.90625 828.636719 1252.128906 C 829.398438 1243.347656 822.898438 1235.613281 814.121094 1234.851562 "/>
<path fill-rule="nonzero" fill="rgb(0%, 0%, 0%)" fill-opacity="1" d="M 766.683594 1279.070312 C 748.050781 1275.679688 702.902344 1252.359375 690.003906 1239.464844 C 667.351562 1216.808594 644.097656 1230.503906 614.664062 1247.851562 C 611.105469 1249.949219 607.304688 1252.1875 603.230469 1254.546875 C 569.652344 1273.984375 517.414062 1278.828125 516.894531 1278.875 C 508.117188 1279.644531 501.632812 1287.386719 502.398438 1296.160156 C 503.171875 1304.945312 510.917969 1311.460938 519.691406 1310.664062 C 522.113281 1310.453125 579.441406 1305.199219 619.21875 1282.167969 C 623.371094 1279.765625 627.242188 1277.480469 630.867188 1275.34375 C 661.003906 1257.585938 663.328125 1257.917969 667.441406 1262.03125 C 685.03125 1279.621094 735.730469 1305.875 760.972656 1310.464844 C 761.941406 1310.644531 762.898438 1310.726562 763.847656 1310.726562 C 771.410156 1310.726562 778.125 1305.328125 779.527344 1297.625 C 781.105469 1288.953125 775.351562 1280.644531 766.683594 1279.070312 "/>
<path fill-rule="nonzero" fill="rgb(0%, 0%, 0%)" fill-opacity="1" d="M 848.476562 1130.4375 C 715.386719 1120.386719 711.644531 1004.253906 711.550781 999.121094 C 711.425781 990.386719 704.3125 983.386719 695.597656 983.386719 C 695.535156 983.386719 695.46875 983.386719 695.40625 983.390625 C 686.59375 983.496094 679.535156 990.722656 679.640625 999.535156 C 679.65625 1001.039062 683.300781 1149.96875 846.074219 1162.261719 C 846.480469 1162.292969 846.890625 1162.304688 847.292969 1162.304688 C 855.558594 1162.304688 862.554688 1155.929688 863.1875 1147.550781 C 863.851562 1138.765625 857.261719 1131.101562 848.476562 1130.4375 "/>
<path fill-rule="nonzero" fill="rgb(0%, 0%, 0%)" fill-opacity="1" d="M 847.21875 1116.792969 C 856.035156 1116.792969 863.175781 1109.648438 863.175781 1100.835938 C 863.175781 1092.019531 856.035156 1084.878906 847.21875 1084.878906 C 809.160156 1084.878906 768.730469 1041.148438 765.09375 957.570312 C 760.335938 848.082031 725.765625 783.890625 662.339844 766.773438 C 609.527344 752.53125 562.148438 780.738281 538.691406 840.410156 C 535.464844 848.609375 539.5 857.875 547.703125 861.097656 C 555.898438 864.324219 565.164062 860.289062 568.390625 852.085938 C 576.683594 830.988281 601.632812 783.457031 654.023438 797.589844 C 702.484375 810.664062 729.125 864.957031 733.210938 958.953125 C 737.25 1051.886719 784.132812 1116.792969 847.21875 1116.792969 "/>
<path fill-rule="nonzero" fill="rgb(0%, 0%, 0%)" fill-opacity="1" d="M 435.441406 995.84375 C 447.296875 995.84375 461.738281 994.238281 476.476562 990.191406 L 476.476562 1146.351562 C 476.476562 1155.164062 483.621094 1162.308594 492.433594 1162.308594 C 501.246094 1162.308594 508.390625 1155.164062 508.390625 1146.351562 L 508.390625 977.042969 C 532.625 962.957031 552.714844 939.539062 556.664062 902.226562 C 557.59375 893.460938 551.238281 885.605469 542.476562 884.679688 C 533.730469 883.753906 525.855469 890.105469 524.925781 898.867188 C 517.820312 965.953125 435.441406 963.96875 431.820312 963.859375 C 423.011719 963.566406 415.628906 970.394531 415.289062 979.191406 C 414.949219 987.996094 421.8125 995.410156 430.621094 995.75 C 432.171875 995.8125 433.78125 995.84375 435.441406 995.84375 "/>
<path fill-rule="nonzero" fill="rgb(0%, 0%, 0%)" fill-opacity="1" d="M 545.6875 969.449219 C 536.875 969.449219 529.730469 976.59375 529.730469 985.40625 L 529.730469 1110.027344 C 529.730469 1116.484375 533.628906 1122.304688 539.597656 1124.769531 C 541.566406 1125.582031 543.632812 1125.976562 545.683594 1125.976562 C 549.847656 1125.976562 553.945312 1124.347656 557 1121.28125 C 557.1875 1121.09375 576.261719 1102.070312 611.664062 1076.917969 C 631.046875 1063.140625 642.15625 1061.550781 645.347656 1062.125 C 652.101562 1066.015625 660.859375 1064.460938 665.824219 1058.152344 C 671.277344 1051.230469 670.085938 1041.199219 663.164062 1035.746094 C 657.753906 1031.484375 636.703125 1019.980469 593.179688 1050.898438 C 580.730469 1059.746094 570.203125 1067.855469 561.644531 1074.796875 L 561.644531 985.40625 C 561.644531 976.59375 554.5 969.449219 545.6875 969.449219 "/>
<path fill-rule="nonzero" fill="rgb(0%, 0%, 0%)" fill-opacity="1" d="M 672.71875 901.691406 C 681.441406 902.84375 689.472656 896.699219 690.632812 887.964844 C 691.496094 881.40625 695.007812 847.785156 679.046875 829.582031 C 672.445312 822.050781 663.539062 818.070312 653.289062 818.070312 C 621.109375 818.070312 583.53125 842.488281 583.53125 911.304688 C 583.53125 948.371094 583.53125 1010.410156 630.792969 1010.410156 C 650.273438 1010.410156 674.464844 1001.140625 679.0625 956.980469 C 679.976562 948.214844 673.609375 940.367188 664.84375 939.457031 C 656.074219 938.554688 648.234375 944.90625 647.320312 953.671875 C 644.925781 976.667969 638.691406 978.496094 630.792969 978.496094 C 623.648438 978.496094 615.445312 970.859375 615.445312 911.304688 C 615.445312 872.910156 629.59375 849.984375 653.289062 849.984375 C 654.488281 849.984375 654.664062 850.183594 655.042969 850.613281 C 659.257812 855.402344 660.503906 871.953125 658.988281 883.808594 C 657.847656 892.535156 663.992188 900.539062 672.71875 901.691406 "/>
<path fill-rule="nonzero" fill="rgb(100%, 100%, 100%)" fill-opacity="1" d="M 628.9375 851.363281 C 610.289062 859.320312 599.550781 882.472656 599.550781 916.683594 C 599.550781 970.835938 605.628906 990.96875 621.984375 990.96875 C 628.78125 990.96875 633.828125 989.054688 637.539062 984.789062 C 635.503906 985.316406 633.269531 985.589844 630.789062 985.589844 C 614.433594 985.589844 608.355469 965.457031 608.355469 911.304688 C 608.355469 882.914062 615.769531 862.171875 628.9375 851.363281 "/>
<path fill-rule="nonzero" fill="rgb(100%, 100%, 100%)" fill-opacity="1" d="M 552.988281 854.871094 C 552.960938 854.9375 552.925781 854.992188 552.898438 855.054688 C 553.113281 855.070312 553.320312 855.117188 553.535156 855.117188 C 557.207031 855.117188 560.445312 852.90625 561.789062 849.492188 C 566.585938 837.292969 577.671875 814.441406 597.460938 800.265625 C 572.082031 813.222656 558.453125 840.96875 552.988281 854.871094 "/>
<path fill-rule="nonzero" fill="rgb(100%, 100%, 100%)" fill-opacity="1" d="M 496.835938 868.265625 C 496.835938 895.328125 489.121094 915.726562 473.90625 928.890625 C 472.789062 929.855469 471.648438 930.746094 470.496094 931.59375 C 474.671875 929.523438 478.8125 926.878906 482.707031 923.507812 C 497.925781 910.347656 505.640625 889.949219 505.640625 862.882812 C 505.640625 819.566406 529.3125 784.597656 561.863281 763.03125 C 524.863281 783.878906 496.835938 821.128906 496.835938 868.265625 "/>
<path fill-rule="nonzero" fill="rgb(100%, 100%, 100%)" fill-opacity="1" d="M 431.296875 886.359375 C 431.296875 887.574219 431.050781 888.730469 430.605469 889.78125 C 430.820312 889.796875 431.019531 889.847656 431.234375 889.847656 C 436.125 889.847656 440.101562 885.871094 440.101562 880.980469 C 440.101562 813.984375 474.863281 754.988281 527.261719 720.96875 C 469.980469 753.902344 431.296875 815.679688 431.296875 886.359375 "/>
<path fill-rule="nonzero" fill="rgb(100%, 100%, 100%)" fill-opacity="1" d="M 554.550781 1087.921875 L 554.550781 985.410156 C 554.550781 980.519531 550.574219 976.542969 545.683594 976.542969 C 542.007812 976.542969 538.851562 978.792969 537.507812 981.988281 C 542.101562 982.316406 545.746094 986.113281 545.746094 990.789062 L 545.746094 1095.058594 Z M 554.550781 1087.921875 "/>
<path fill-rule="nonzero" fill="rgb(100%, 100%, 100%)" fill-opacity="1" d="M 846.976562 1057.148438 C 851.867188 1057.148438 855.839844 1053.171875 855.839844 1048.28125 C 855.839844 1043.390625 851.867188 1039.417969 846.976562 1039.417969 C 834.730469 1039.417969 821.101562 1035.066406 812.894531 1002.796875 C 806.320312 976.964844 804.972656 940.109375 804.972656 892.71875 C 804.972656 796.695312 732.117188 721.472656 639.109375 721.472656 C 609.207031 721.472656 578.445312 731.011719 552.535156 748.078125 C 576.464844 734.414062 603.71875 726.851562 630.304688 726.851562 C 723.3125 726.851562 796.171875 802.074219 796.171875 898.101562 C 796.171875 945.492188 797.519531 982.347656 804.089844 1008.175781 C 812.296875 1040.449219 825.925781 1044.796875 838.171875 1044.796875 C 843.0625 1044.796875 847.039062 1048.773438 847.039062 1053.660156 C 847.039062 1054.886719 846.789062 1056.054688 846.335938 1057.117188 C 846.554688 1057.117188 846.757812 1057.148438 846.976562 1057.148438 "/>
<path fill-rule="nonzero" fill="rgb(100%, 100%, 100%)" fill-opacity="1" d="M 449.589844 1195.664062 C 446.039062 1195.753906 443.046875 1197.945312 441.710938 1201.007812 C 449.933594 1200.644531 508.40625 1197.003906 555.769531 1166.03125 C 507.605469 1193.554688 452.15625 1195.585938 449.589844 1195.664062 "/>
<path fill-rule="nonzero" fill="rgb(100%, 100%, 100%)" fill-opacity="1" d="M 425.03125 976.359375 C 434.519531 976.355469 467.867188 974.996094 493.199219 957.238281 C 469.472656 969.894531 442.257812 970.976562 433.835938 970.980469 C 432.667969 970.980469 431.902344 970.957031 431.273438 970.941406 C 427.589844 970.941406 424.449219 973.152344 423.09375 976.335938 C 423.613281 976.347656 424.203125 976.359375 425.03125 976.359375 "/>
<path fill-rule="nonzero" fill="rgb(100%, 100%, 100%)" fill-opacity="1" d="M 438.03125 921.160156 C 434.84375 921.160156 432.765625 920.90625 432.449219 920.867188 C 432.03125 920.808594 431.613281 920.78125 431.203125 920.78125 C 427.617188 920.78125 424.46875 923.011719 423.105469 926.210938 C 423.285156 926.222656 423.464844 926.222656 423.644531 926.246094 C 423.960938 926.289062 426.039062 926.542969 429.230469 926.542969 C 436.546875 926.542969 450.105469 925.117188 461.03125 916.429688 C 452.34375 920.359375 443.464844 921.160156 438.03125 921.160156 "/>
<path fill-rule="nonzero" fill="rgb(100%, 100%, 100%)" fill-opacity="1" d="M 596.417969 1208.71875 C 552.335938 1232.917969 472.140625 1241.546875 468.492188 1241.929688 C 465.234375 1242.257812 462.597656 1244.339844 461.339844 1247.128906 C 474.480469 1245.644531 557.78125 1235.332031 596.414062 1208.71875 C 596.414062 1208.71875 596.417969 1208.71875 596.417969 1208.71875 "/>
<path fill-rule="nonzero" fill="rgb(100%, 100%, 100%)" fill-opacity="1" d="M 449.804688 1163.394531 C 450.40625 1163.394531 451.015625 1163.332031 451.613281 1163.207031 C 456.402344 1162.21875 459.488281 1157.515625 458.503906 1152.730469 C 453.210938 1127.109375 452.605469 1055.96875 452.816406 1030.722656 C 452.859375 1025.835938 448.910156 1021.824219 443.902344 1021.785156 C 440.332031 1021.785156 437.164062 1024.074219 435.796875 1027.238281 C 440.460938 1027.632812 444.050781 1031.449219 444.011719 1036.101562 C 443.800781 1061.347656 444.40625 1132.488281 449.699219 1158.109375 C 450.074219 1159.933594 449.851562 1161.742188 449.175781 1163.335938 C 449.386719 1163.351562 449.589844 1163.394531 449.804688 1163.394531 "/>
<path fill-rule="nonzero" fill="rgb(100%, 100%, 100%)" fill-opacity="1" d="M 532.664062 897.097656 C 532.75 897.105469 532.835938 897.105469 532.921875 897.113281 C 535.28125 897.363281 537.398438 898.511719 538.886719 900.355469 C 540.371094 902.191406 541.054688 904.503906 540.804688 906.859375 C 537.800781 935.277344 524.636719 957.398438 501.6875 972.730469 L 504.824219 970.910156 C 531.296875 955.53125 546.363281 932.171875 549.609375 901.476562 C 549.859375 899.125 549.175781 896.8125 547.691406 894.972656 C 546.199219 893.132812 544.085938 891.980469 541.726562 891.734375 C 541.40625 891.699219 541.089844 891.679688 540.777344 891.679688 C 537.136719 891.679688 534.015625 893.894531 532.664062 897.097656 "/>
<path fill-rule="nonzero" fill="rgb(100%, 100%, 100%)" fill-opacity="1" d="M 492.492188 1151.730469 C 492.492188 1152.945312 492.246094 1154.097656 491.804688 1155.152344 C 492.015625 1155.167969 492.21875 1155.214844 492.433594 1155.214844 C 497.320312 1155.214844 501.296875 1151.242188 501.296875 1146.351562 L 501.296875 973.003906 C 499.589844 974.132812 497.839844 975.234375 496.023438 976.289062 L 492.492188 978.339844 Z M 492.492188 1151.730469 "/>
<path fill-rule="nonzero" fill="rgb(100%, 100%, 100%)" fill-opacity="1" d="M 854 1140.574219 C 852.457031 1138.773438 850.304688 1137.6875 847.941406 1137.507812 C 708.390625 1126.96875 704.558594 1004.460938 704.460938 999.222656 C 704.390625 994.402344 700.417969 990.480469 695.5 990.480469 L 695.492188 990.480469 C 693.121094 990.511719 690.90625 991.457031 689.25 993.152344 C 688.453125 993.96875 687.84375 994.914062 687.417969 995.933594 C 691.992188 996.300781 695.589844 1000.023438 695.65625 1004.601562 C 695.753906 1009.84375 699.585938 1132.347656 839.136719 1142.886719 C 841.5 1143.066406 843.652344 1144.15625 845.195312 1145.953125 C 846.738281 1147.746094 847.488281 1150.035156 847.3125 1152.394531 C 847.234375 1153.382812 846.96875 1154.3125 846.59375 1155.183594 C 846.621094 1155.1875 846.644531 1155.191406 846.671875 1155.191406 C 846.878906 1155.210938 847.085938 1155.21875 847.292969 1155.21875 C 851.890625 1155.21875 855.765625 1151.617188 856.117188 1147.011719 C 856.292969 1144.65625 855.539062 1142.367188 854 1140.574219 "/>
<path fill-rule="nonzero" fill="rgb(100%, 100%, 100%)" fill-opacity="1" d="M 688.328125 1306.015625 C 687.757812 1306.015625 687.179688 1306.070312 686.613281 1306.179688 C 674.652344 1308.519531 662.332031 1309.707031 650.007812 1309.707031 C 646.800781 1309.707031 643.554688 1309.628906 640.351562 1309.464844 L 623.332031 1308.628906 C 619.660156 1308.628906 616.515625 1310.851562 615.15625 1314.039062 L 631.546875 1314.84375 C 634.75 1315.007812 638 1315.085938 641.203125 1315.085938 C 653.53125 1315.085938 665.847656 1313.902344 677.808594 1311.558594 C 678.375 1311.449219 678.953125 1311.394531 679.527344 1311.394531 C 683.742188 1311.394531 687.398438 1314.410156 688.210938 1318.566406 C 688.585938 1320.480469 688.285156 1322.363281 687.511719 1324.007812 C 688.339844 1323.859375 689.183594 1323.746094 690.007812 1323.582031 C 694.808594 1322.644531 697.953125 1317.976562 697.015625 1313.183594 C 696.199219 1309.03125 692.546875 1306.015625 688.328125 1306.015625 "/>
<path fill-rule="nonzero" fill="rgb(100%, 100%, 100%)" fill-opacity="1" d="M 765.410156 1286.046875 C 745.4375 1282.410156 698.835938 1258.324219 684.992188 1244.476562 C 678.308594 1237.792969 671.632812 1234.679688 663.988281 1234.679688 C 650.988281 1234.679688 635.828125 1243.613281 618.269531 1253.957031 C 614.695312 1256.066406 610.878906 1258.3125 606.785156 1260.683594 C 571.617188 1281.046875 518.042969 1285.890625 517.519531 1285.9375 C 514.210938 1286.226562 511.519531 1288.328125 510.242188 1291.160156 C 519.253906 1290.207031 566.152344 1284.492188 597.980469 1266.0625 C 602.074219 1263.691406 605.890625 1261.445312 609.464844 1259.339844 C 627.023438 1248.996094 642.183594 1240.0625 655.183594 1240.0625 C 662.832031 1240.0625 669.503906 1243.175781 676.1875 1249.859375 C 690.03125 1263.703125 736.632812 1287.789062 756.605469 1291.425781 C 758.941406 1291.847656 760.964844 1293.152344 762.3125 1295.101562 C 763.660156 1297.050781 764.167969 1299.402344 763.746094 1301.734375 C 763.628906 1302.382812 763.421875 1302.988281 763.175781 1303.574219 C 763.398438 1303.59375 763.625 1303.636719 763.84375 1303.636719 C 768.121094 1303.636719 771.78125 1300.574219 772.550781 1296.355469 C 772.972656 1294.023438 772.464844 1291.667969 771.117188 1289.71875 C 769.769531 1287.773438 767.746094 1286.46875 765.410156 1286.046875 "/>
<path fill-rule="nonzero" fill="rgb(100%, 100%, 100%)" fill-opacity="1" d="M 621.984375 677.941406 L 638.613281 677.941406 C 753.539062 677.941406 847.039062 771.4375 847.039062 886.359375 L 847.039062 999.835938 C 847.039062 1001.046875 846.789062 1002.203125 846.347656 1003.253906 C 846.558594 1003.269531 846.761719 1003.320312 846.976562 1003.320312 C 851.867188 1003.320312 855.839844 999.34375 855.839844 994.453125 L 855.839844 880.980469 C 855.839844 766.058594 762.34375 672.5625 647.417969 672.5625 L 630.789062 672.5625 C 589.277344 672.5625 550.597656 684.808594 518.074219 705.808594 C 548.6875 688.121094 584.160156 677.941406 621.984375 677.941406 "/>
<path fill-rule="nonzero" fill="rgb(100%, 100%, 100%)" fill-opacity="1" d="M 835.582031 1190.160156 C 792.472656 1188.507812 729.992188 1150.601562 696.820312 1116.425781 C 686.847656 1106.148438 676.503906 1101.152344 665.195312 1101.152344 C 652.242188 1101.152344 638.648438 1107.679688 624.949219 1116.632812 C 635.652344 1110.570312 646.222656 1106.53125 656.390625 1106.53125 C 667.699219 1106.53125 678.042969 1111.53125 688.015625 1121.804688 C 721.1875 1155.980469 783.671875 1193.890625 826.777344 1195.542969 C 831.660156 1195.726562 835.476562 1199.855469 835.292969 1204.742188 C 835.25 1205.851562 834.988281 1206.894531 834.585938 1207.859375 C 834.691406 1207.863281 834.804688 1207.878906 834.910156 1207.882812 L 835.289062 1207.886719 C 840.042969 1207.886719 843.910156 1204.140625 844.097656 1199.363281 C 844.28125 1194.476562 840.464844 1190.347656 835.582031 1190.160156 "/>
<path fill-rule="nonzero" fill="rgb(100%, 100%, 100%)" fill-opacity="1" d="M 847.222656 1109.699219 C 852.113281 1109.699219 856.085938 1105.722656 856.085938 1100.835938 C 856.085938 1095.945312 852.113281 1091.96875 847.222656 1091.96875 C 805.789062 1091.96875 761.839844 1045.910156 758.011719 957.875 C 753.402344 851.832031 720.589844 789.839844 660.492188 773.621094 C 652.140625 771.371094 643.8125 770.230469 635.730469 770.230469 C 618.207031 770.230469 601.957031 775.539062 587.699219 785.484375 C 599.722656 779.042969 612.910156 775.609375 626.925781 775.609375 C 635.007812 775.609375 643.335938 776.75 651.6875 779 C 711.785156 795.21875 744.597656 857.214844 749.207031 963.253906 C 753.035156 1051.289062 796.984375 1097.347656 838.417969 1097.347656 C 843.308594 1097.347656 847.285156 1101.324219 847.285156 1106.214844 C 847.285156 1107.445312 847.03125 1108.613281 846.578125 1109.679688 C 846.792969 1109.679688 847.003906 1109.699219 847.222656 1109.699219 "/>
<path fill-rule="nonzero" fill="rgb(100%, 100%, 100%)" fill-opacity="1" d="M 813.503906 1241.914062 C 792.351562 1240.074219 734.636719 1216.179688 701.292969 1188.199219 C 686.714844 1175.96875 675.054688 1170.265625 664.605469 1170.265625 C 655.304688 1170.265625 646.09375 1174.792969 635.4375 1181.878906 C 642.546875 1177.980469 649.152344 1175.644531 655.800781 1175.644531 C 666.25 1175.644531 677.910156 1181.347656 692.492188 1193.578125 C 725.832031 1221.558594 783.546875 1245.457031 804.699219 1247.296875 C 807.0625 1247.5 809.199219 1248.609375 810.722656 1250.425781 C 812.246094 1252.234375 812.96875 1254.535156 812.765625 1256.894531 C 812.683594 1257.847656 812.417969 1258.738281 812.058594 1259.582031 C 812.304688 1259.601562 812.554688 1259.617188 812.800781 1259.617188 C 817.324219 1259.617188 821.175781 1256.058594 821.570312 1251.515625 C 821.773438 1249.15625 821.050781 1246.855469 819.527344 1245.046875 C 818.003906 1243.230469 815.867188 1242.117188 813.503906 1241.914062 "/>
<path fill-rule="nonzero" fill="rgb(100%, 100%, 100%)" fill-opacity="1" d="M 598.757812 1076.515625 C 570.527344 1096.570312 552.714844 1112.613281 546.097656 1118.84375 C 548.300781 1118.738281 550.421875 1117.835938 551.988281 1116.265625 C 552.785156 1115.46875 571.898438 1096.472656 607.558594 1071.136719 C 608.964844 1070.140625 610.316406 1069.214844 611.640625 1068.335938 C 607.800781 1070.464844 603.523438 1073.128906 598.757812 1076.515625 "/>
<path fill-rule="nonzero" fill="rgb(100%, 100%, 100%)" fill-opacity="1" d="M 633.457031 1204.945312 C 637.882812 1201.714844 641.855469 1198.824219 645.488281 1196.351562 C 639.753906 1199.324219 632.96875 1204.253906 624.652344 1210.324219 C 619.679688 1213.960938 613.53125 1218.460938 606.472656 1223.324219 C 606.207031 1223.507812 605.917969 1223.679688 605.648438 1223.859375 C 609.046875 1221.976562 612.277344 1220.011719 615.277344 1217.945312 C 622.335938 1213.078125 628.484375 1208.582031 633.457031 1204.945312 "/>
<path fill-rule="nonzero" fill="rgb(100%, 100%, 100%)" fill-opacity="1" d="M 600.472656 1155.320312 C 591.109375 1162.480469 580.617188 1170.507812 569.316406 1178.316406 C 567.921875 1179.28125 566.511719 1180.203125 565.097656 1181.121094 C 569.5 1178.589844 573.855469 1175.882812 578.117188 1172.9375 C 589.421875 1165.128906 599.914062 1157.101562 609.277344 1149.9375 C 619.707031 1141.964844 628.273438 1135.636719 635.566406 1130.832031 C 626.542969 1135.855469 615.429688 1143.882812 600.472656 1155.320312 "/>
<path fill-rule="nonzero" fill="rgb(100%, 100%, 100%)" fill-opacity="1" d="M 653.28125 1057.152344 C 656.019531 1057.152344 658.5625 1055.917969 660.257812 1053.765625 C 661.71875 1051.90625 662.371094 1049.585938 662.09375 1047.234375 C 661.8125 1044.882812 660.636719 1042.78125 658.773438 1041.316406 C 657.195312 1040.074219 652.625 1037.1875 644.261719 1037.1875 C 636.039062 1037.1875 622.285156 1040.09375 602.386719 1053.207031 C 617.601562 1044.65625 628.507812 1042.566406 635.457031 1042.566406 C 643.820312 1042.566406 648.390625 1045.457031 649.96875 1046.699219 C 651.832031 1048.164062 653.011719 1050.265625 653.289062 1052.617188 C 653.472656 1054.15625 653.21875 1055.671875 652.632812 1057.066406 C 652.851562 1057.082031 653.0625 1057.152344 653.28125 1057.152344 "/>
<path fill-rule="nonzero" fill="rgb(100%, 100%, 100%)" fill-opacity="1" d="M 670.078125 949.742188 C 668.582031 947.902344 666.464844 946.753906 664.121094 946.507812 C 663.808594 946.480469 663.496094 946.460938 663.1875 946.460938 C 659.539062 946.460938 656.414062 948.675781 655.0625 951.875 C 655.144531 951.882812 655.230469 951.882812 655.316406 951.890625 C 657.660156 952.136719 659.78125 953.28125 661.273438 955.121094 C 662.765625 956.960938 663.449219 959.269531 663.203125 961.625 C 661.308594 979.832031 655.78125 992.769531 646.746094 1000.421875 C 661.078125 994.558594 669.558594 979.773438 672.007812 956.242188 C 672.253906 953.890625 671.570312 951.578125 670.078125 949.742188 "/>
<path fill-rule="nonzero" fill="rgb(100%, 100%, 100%)" fill-opacity="1" d="M 674.136719 894.695312 C 674.367188 894.710938 674.597656 894.738281 674.824219 894.738281 C 679.246094 894.738281 683.015625 891.425781 683.597656 887.035156 C 684.085938 883.34375 687.949219 850.496094 673.714844 834.257812 C 668.425781 828.222656 661.554688 825.160156 653.292969 825.160156 C 642.199219 825.160156 630.394531 828.5 620.054688 836.191406 C 628.019531 832.296875 636.441406 830.542969 644.488281 830.542969 C 652.75 830.542969 659.621094 833.601562 664.914062 839.640625 C 679.144531 855.875 675.28125 888.722656 674.796875 892.414062 C 674.6875 893.222656 674.441406 893.972656 674.136719 894.695312 "/>
</svg>
